<svg width="55" height="55" viewBox="0 0 55 55" fill="none" xmlns="http://www.w3.org/2000/svg">
<path d="M27.7165 12.1989C28.3905 12.1981 29.0367 11.936 29.5133 11.47C29.9899 11.004 30.258 10.3721 30.2588 9.71308V4.74144C30.2588 4.08216 29.9909 3.44988 29.5141 2.9837C29.0374 2.51751 28.3907 2.25562 27.7165 2.25562C27.0422 2.25562 26.3955 2.51751 25.9188 2.9837C25.442 3.44988 25.1741 4.08216 25.1741 4.74144V9.71308C25.1749 10.3721 25.443 11.004 25.9196 11.47C26.3962 11.936 27.0424 12.1981 27.7165 12.1989ZM26.869 4.74144C26.869 4.52168 26.9583 4.31092 27.1172 4.15552C27.2761 4.00013 27.4917 3.91283 27.7165 3.91283C27.9412 3.91283 28.1568 4.00013 28.3157 4.15552C28.4746 4.31092 28.5639 4.52168 28.5639 4.74144V9.71308C28.5639 9.93285 28.4746 10.1436 28.3157 10.299C28.1568 10.4544 27.9412 10.5417 27.7165 10.5417C27.4917 10.5417 27.2761 10.4544 27.1172 10.299C26.9583 10.1436 26.869 9.93285 26.869 9.71308V4.74144Z" fill="white"/>
<path d="M11.6151 27.1139C11.6144 26.4548 11.3463 25.823 10.8696 25.3569C10.393 24.8909 9.74682 24.6288 9.07279 24.6281H4.83559C4.16133 24.6281 3.51468 24.8899 3.0379 25.3561C2.56112 25.8223 2.29327 26.4546 2.29327 27.1139C2.29327 27.7732 2.56112 28.4054 3.0379 28.8716C3.51468 29.3378 4.16133 29.5997 4.83559 29.5997H9.07279C9.74682 29.599 10.393 29.3368 10.8696 28.8708C11.3463 28.4048 11.6144 27.7729 11.6151 27.1139ZM3.98815 27.1139C3.98841 26.8942 4.07777 26.6836 4.23664 26.5282C4.39551 26.3729 4.61092 26.2855 4.83559 26.2853H9.07279C9.29755 26.2853 9.5131 26.3726 9.67202 26.528C9.83095 26.6834 9.92023 26.8941 9.92023 27.1139C9.92023 27.3336 9.83095 27.5444 9.67202 27.6998C9.5131 27.8552 9.29755 27.9425 9.07279 27.9425H4.83559C4.61092 27.9422 4.39551 27.8549 4.23664 27.6995C4.07777 27.5442 3.98841 27.3336 3.98815 27.1139Z" fill="white"/>
<path d="M50.5973 24.6281H46.3601C45.6859 24.6281 45.0392 24.8899 44.5624 25.3561C44.0857 25.8223 43.8178 26.4546 43.8178 27.1139C43.8178 27.7732 44.0857 28.4054 44.5624 28.8716C45.0392 29.3378 45.6859 29.5997 46.3601 29.5997H50.5973C51.2716 29.5997 51.9182 29.3378 52.395 28.8716C52.8718 28.4054 53.1396 27.7732 53.1396 27.1139C53.1396 26.4546 52.8718 25.8223 52.395 25.3561C51.9182 24.8899 51.2716 24.6281 50.5973 24.6281ZM50.5973 27.9425H46.3601C46.1354 27.9425 45.9198 27.8552 45.7609 27.6998C45.602 27.5444 45.5127 27.3336 45.5127 27.1139C45.5127 26.8941 45.602 26.6834 45.7609 26.528C45.9198 26.3726 46.1354 26.2853 46.3601 26.2853H50.5973C50.8221 26.2853 51.0376 26.3726 51.1966 26.528C51.3555 26.6834 51.4448 26.8941 51.4448 27.1139C51.4448 27.3336 51.3555 27.5444 51.1966 27.6998C51.0376 27.8552 50.8221 27.9425 50.5973 27.9425Z" fill="white"/>
<path d="M9.77481 13.0863C10.2516 13.5525 10.8982 13.8144 11.5725 13.8144C12.2468 13.8144 12.8934 13.5525 13.3702 13.0863C13.8462 12.6197 14.1136 11.9876 14.1136 11.3286C14.1136 10.6695 13.8462 10.0374 13.3702 9.57082L9.17535 5.46921C8.93949 5.23737 8.65917 5.0533 8.35044 4.92756C8.04171 4.80182 7.71064 4.73688 7.37619 4.73645C7.04175 4.73603 6.71051 4.80013 6.40144 4.92508C6.09238 5.05004 5.81156 5.23339 5.57509 5.46463C5.33862 5.69588 5.15113 5.97047 5.02337 6.27269C4.89561 6.5749 4.83009 6.89879 4.83057 7.2258C4.83104 7.55281 4.8975 7.87652 5.02614 8.17837C5.15477 8.48023 5.34305 8.7543 5.58019 8.98489L9.77481 13.0863ZM6.77879 6.64128C6.93771 6.48594 7.15322 6.39867 7.37793 6.39867C7.60264 6.39867 7.81815 6.48594 7.97707 6.64128L12.1719 10.7429C12.3308 10.8983 12.4201 11.109 12.4201 11.3288C12.4201 11.5486 12.3308 11.7593 12.1719 11.9147C12.013 12.0701 11.7974 12.1574 11.5727 12.1574C11.3479 12.1574 11.1323 12.0701 10.9734 11.9147L6.77858 7.81314C6.61968 7.65775 6.53041 7.447 6.53041 7.22726C6.53041 7.00752 6.61968 6.79677 6.77858 6.64138L6.77879 6.64128Z" fill="white"/>
<path d="M42.0628 13.0864C42.5396 13.5526 43.1862 13.8145 43.8605 13.8145C44.5348 13.8145 45.1814 13.5526 45.6582 13.0864L49.853 8.98482C50.0891 8.75397 50.2763 8.47992 50.4041 8.17831C50.5318 7.8767 50.5975 7.55345 50.5975 7.227C50.5975 6.90055 50.5317 6.57731 50.4039 6.27572C50.2761 5.97413 50.0888 5.70011 49.8527 5.46929C49.6166 5.23848 49.3364 5.05539 49.0279 4.93049C48.7194 4.80558 48.3888 4.74131 48.055 4.74133C47.7211 4.74136 47.3905 4.80568 47.0821 4.93063C46.7736 5.05558 46.4934 5.2387 46.2573 5.46955L42.0625 9.57116C41.5864 10.0377 41.3191 10.6699 41.3191 11.3289C41.3191 11.9879 41.5864 12.6201 42.0625 13.0866L42.0628 13.0864ZM43.2612 10.7427L47.456 6.6411C47.5344 6.56275 47.6279 6.50038 47.7311 6.4576C47.8343 6.41482 47.9451 6.39248 48.0572 6.39188C48.1693 6.39127 48.2804 6.41242 48.384 6.45408C48.4877 6.49575 48.5819 6.55711 48.6611 6.63461C48.7404 6.71211 48.8031 6.80422 48.8457 6.90559C48.8883 7.00696 48.9099 7.11559 48.9093 7.22518C48.9087 7.33477 48.8858 7.44316 48.842 7.54405C48.7982 7.64494 48.7344 7.73634 48.6543 7.81296L44.4595 11.9146C44.3005 12.07 44.085 12.1573 43.8602 12.1573C43.6355 12.1573 43.4199 12.07 43.261 11.9146C43.1021 11.7592 43.0128 11.5484 43.0128 11.3286C43.0128 11.1089 43.1021 10.8981 43.261 10.7427H43.2612Z" fill="white"/>
<path d="M43.7331 44.5335L43.3537 41.111L41.6687 41.2895L42.0261 44.5147H30.2588V33.9292L38.429 37.0018C38.5657 37.0532 38.7137 37.0691 38.8585 37.0479C39.0033 37.0267 39.1401 36.9692 39.2554 36.881C39.3708 36.7927 39.4607 36.6768 39.5166 36.5444C39.5724 36.412 39.5922 36.2677 39.5741 36.1256L37.8792 22.8679C37.8615 22.7292 37.8082 22.5972 37.7243 22.4841C37.6403 22.3709 37.5285 22.2804 37.3992 22.2209C37.2699 22.1614 37.1273 22.1348 36.9846 22.1437C36.842 22.1525 36.7039 22.1965 36.5834 22.2715L29.5081 26.6735C28.9471 26.4174 28.3356 26.2847 27.7165 26.2847C27.0974 26.2847 26.4858 26.4174 25.9249 26.6735L18.8502 22.2717C18.7296 22.1967 18.5915 22.1527 18.4489 22.1439C18.3062 22.135 18.1636 22.1616 18.0343 22.2211C17.905 22.2806 17.7932 22.3712 17.7092 22.4843C17.6253 22.5974 17.572 22.7294 17.5543 22.8681L15.8594 36.1258C15.8413 36.2679 15.8611 36.4122 15.9169 36.5446C15.9728 36.677 16.0627 36.7929 16.1781 36.8812C16.2934 36.9694 16.4302 37.0269 16.575 37.0481C16.7199 37.0693 16.8678 37.0534 17.0045 37.002L25.1742 33.9292V44.5147H13.4068L15.877 22.2315L14.1921 22.053L11.6999 44.5335C10.977 44.6157 10.3102 44.9546 9.82596 45.4857C9.3417 46.0168 9.0737 46.7033 9.07281 47.4148V51.1435C9.07281 51.3633 9.1621 51.5741 9.32102 51.7294C9.47995 51.8848 9.6955 51.9721 9.92025 51.9721H45.5127C45.7375 51.9721 45.953 51.8848 46.112 51.7294C46.2709 51.5741 46.3602 51.3633 46.3602 51.1435V47.4148C46.3593 46.7033 46.0913 46.0168 45.607 45.4857C45.1228 44.9546 44.4559 44.6157 43.7331 44.5335ZM37.7169 34.9585L31.3469 32.5629C31.8048 31.82 32.0121 30.9551 31.9397 30.0906C31.8672 29.2261 31.5185 28.4058 30.943 27.7457L36.3637 24.3729L37.7169 34.9585ZM30.2588 30.4283C30.2588 30.92 30.1097 31.4006 29.8304 31.8094C29.551 32.2182 29.1539 32.5368 28.6894 32.7249C28.2248 32.9131 27.7137 32.9623 27.2205 32.8664C26.7273 32.7705 26.2743 32.5337 25.9188 32.1861C25.5632 31.8384 25.3211 31.3955 25.223 30.9133C25.1249 30.4311 25.1753 29.9313 25.3677 29.4771C25.5601 29.0228 25.886 28.6346 26.3041 28.3615C26.7221 28.0883 27.2137 27.9425 27.7165 27.9425C28.3905 27.9433 29.0367 28.2054 29.5133 28.6714C29.99 29.1374 30.2581 29.7693 30.2588 30.4283ZM19.0694 24.3729L24.4901 27.7457C23.9146 28.4058 23.5659 29.2261 23.4934 30.0906C23.4209 30.9551 23.6283 31.82 24.0862 32.5629L17.7167 34.9585L19.0694 24.3729ZM26.8691 34.4885C27.4283 34.5996 28.0047 34.5996 28.5639 34.4885V44.5147H26.8691V34.4885ZM44.6653 50.3149H10.7677V47.4148C10.7681 47.0853 10.9021 46.7693 11.1404 46.5363C11.3787 46.3033 11.7018 46.1722 12.0389 46.1719H43.3941C43.7311 46.1722 44.0543 46.3033 44.2926 46.5363C44.5309 46.7693 44.6649 47.0853 44.6653 47.4148V50.3149Z" fill="white"/>
<path d="M16.3956 17.5537C16.4548 16.9933 16.7246 16.4743 17.1528 16.0974C17.581 15.7204 18.1371 15.5123 18.7132 15.5133H36.7196C37.2962 15.5124 37.8526 15.7208 38.2809 16.0983C38.7092 16.4757 38.9788 16.9952 39.0376 17.556L41.4846 39.6322L43.1695 39.4536L40.7225 17.3799C40.6203 16.4121 40.1542 15.5158 39.4147 14.8648C38.6751 14.2137 37.7148 13.8543 36.7196 13.8561H18.7132C17.7184 13.8541 16.7583 14.2132 16.0188 14.8638C15.2793 15.5144 14.813 16.4102 14.7104 17.3777L14.3757 20.396L16.0607 20.5745L16.3956 17.5537Z" fill="white"/>
<path d="M17.5472 41.2002H15.8523V42.8574H17.5472V41.2002Z" fill="white"/>
<path d="M39.5806 41.2002H37.8857V42.8574H39.5806V41.2002Z" fill="white"/>
</svg>
