<svg width="27" height="27" viewBox="0 0 27 27" fill="none" xmlns="http://www.w3.org/2000/svg">
<path d="M24.9231 11.4231H15.5769V2.07692C15.5769 1.52609 15.3581 0.997816 14.9686 0.608317C14.5791 0.218818 14.0508 0 13.5 0C12.9492 0 12.4209 0.218818 12.0314 0.608317C11.6419 0.997816 11.4231 1.52609 11.4231 2.07692V11.4231H2.07692C1.52609 11.4231 0.997816 11.6419 0.608317 12.0314C0.218818 12.4209 0 12.9492 0 13.5C0 14.0508 0.218818 14.5791 0.608317 14.9686C0.997816 15.3581 1.52609 15.5769 2.07692 15.5769H11.4231V24.9231C11.4231 25.4739 11.6419 26.0022 12.0314 26.3917C12.4209 26.7812 12.9492 27 13.5 27C14.0508 27 14.5791 26.7812 14.9686 26.3917C15.3581 26.0022 15.5769 25.4739 15.5769 24.9231V15.5769H24.9231C25.4739 15.5769 26.0022 15.3581 26.3917 14.9686C26.7812 14.5791 27 14.0508 27 13.5C27 12.9492 26.7812 12.4209 26.3917 12.0314C26.0022 11.6419 25.4739 11.4231 24.9231 11.4231Z" fill="white"/>
</svg>
